<svg viewBox="0 0 760 220" xmlns="http://www.w3.org/2000/svg" font-family="'Helvetica Neue', Arial, sans-serif">
  <defs>
    <marker id="arr" markerWidth="6" markerHeight="6" refX="5" refY="3" orient="auto">
      <path d="M1,1 L5,3 L1,5" fill="none" stroke="#c0bdb4" stroke-width="1.2"/>
    </marker>
  </defs>
  <rect width="760" height="220" fill="#f8f7f5" rx="14"/>
  <line x1="168" y1="95" x2="202" y2="95" stroke="#c0bdb4" stroke-width="1.2" marker-end="url(#arr)"/>
  <line x1="358" y1="95" x2="392" y2="95" stroke="#c0bdb4" stroke-width="1.2" marker-end="url(#arr)"/>
  <line x1="548" y1="95" x2="582" y2="95" stroke="#c0bdb4" stroke-width="1.2" marker-end="url(#arr)"/>
  <rect x="24" y="32" width="144" height="126" rx="10" fill="#ffffff" stroke="#e2dfd8" stroke-width="1"/>
  <rect x="38" y="44" width="42" height="18" rx="9" fill="#e6f1fb"/>
  <text x="59" y="57" font-size="10" fill="#185fa5" text-anchor="middle" font-weight="500">STEP 1</text>
  <rect x="72" y="72" width="32" height="40" rx="4" fill="#e6f1fb" stroke="#378add" stroke-width="1.2"/>
  <polyline points="88,72 88,82 100,82" fill="none" stroke="#378add" stroke-width="1.2"/>
  <rect x="88" y="72" width="12" height="10" rx="0" fill="#e6f1fb"/>
  <text x="88" y="102" font-size="8.5" fill="#185fa5" text-anchor="middle" font-weight="500">.plugin</text>
  <text x="96" y="128" font-size="10.5" fill="#2c2c2a" text-anchor="middle" font-weight="500">파일 다운로드</text>
  <text x="96" y="143" font-size="9" fill="#888780" text-anchor="middle">GitHub에서 받기</text>
  <rect x="214" y="32" width="144" height="126" rx="10" fill="#ffffff" stroke="#e2dfd8" stroke-width="1"/>
  <rect x="228" y="44" width="42" height="18" rx="9" fill="#faeeda"/>
  <text x="249" y="57" font-size="10" fill="#633806" text-anchor="middle" font-weight="500">STEP 2</text>
  <rect x="257" y="70" width="28" height="36" rx="3" fill="#faeeda" stroke="#ba7517" stroke-width="1.2"/>
  <polyline points="271,70 271,79 285,79" fill="none" stroke="#ba7517" stroke-width="1.2"/>
  <rect x="271" y="70" width="14" height="9" rx="0" fill="#faeeda"/>
  <circle cx="297" cy="103" r="9" fill="none" stroke="#ba7517" stroke-width="1" opacity="0.4"/>
  <circle cx="297" cy="103" r="5" fill="none" stroke="#ba7517" stroke-width="1" opacity="0.7"/>
  <circle cx="297" cy="103" r="2" fill="#ba7517"/>
  <text x="286" y="128" font-size="10.5" fill="#2c2c2a" text-anchor="middle" font-weight="500">더블클릭</text>
  <text x="286" y="143" font-size="9" fill="#888780" text-anchor="middle">파일 실행</text>
  <rect x="404" y="32" width="144" height="126" rx="10" fill="#ffffff" stroke="#e2dfd8" stroke-width="1"/>
  <rect x="418" y="44" width="42" height="18" rx="9" fill="#fcebeb"/>
  <text x="439" y="57" font-size="10" fill="#a32d2d" text-anchor="middle" font-weight="500">STEP 3</text>
  <rect x="422" y="66" width="108" height="64" rx="6" fill="#f1efe8" stroke="#b4b2a9" stroke-width="1"/>
  <rect x="422" y="66" width="108" height="18" rx="6" fill="#e2dfd8"/>
  <rect x="422" y="75" width="108" height="9" fill="#e2dfd8"/>
  <text x="476" y="79" font-size="8" fill="#444441" text-anchor="middle" font-weight="500">플러그인 설치</text>
  <text x="476" y="98" font-size="7.5" fill="#5f5e5a" text-anchor="middle">ax-buddy-plugin</text>
  <text x="476" y="109" font-size="7" fill="#888780" text-anchor="middle">설치하시겠습니까?</text>
  <rect x="452" y="116" width="48" height="10" rx="4" fill="#378add"/>
  <text x="476" y="124" font-size="7.5" fill="#ffffff" text-anchor="middle" font-weight="500">저장</text>
  <text x="476" y="143" font-size="10.5" fill="#2c2c2a" text-anchor="middle" font-weight="500">저장 클릭</text>
  <rect x="594" y="32" width="144" height="126" rx="10" fill="#ffffff" stroke="#e2dfd8" stroke-width="1"/>
  <rect x="608" y="44" width="42" height="18" rx="9" fill="#eaf3de"/>
  <text x="629" y="57" font-size="10" fill="#3b6d11" text-anchor="middle" font-weight="500">STEP 4</text>
  <rect x="612" y="66" width="108" height="64" rx="6" fill="#f1efe8" stroke="#b4b2a9" stroke-width="1"/>
  <rect x="612" y="66" width="108" height="16" rx="6" fill="#e2dfd8"/>
  <rect x="612" y="73" width="108" height="9" fill="#e2dfd8"/>
  <text x="666" y="78" font-size="7.5" fill="#444441" text-anchor="middle" font-weight="500">Customize · 플러그인</text>
  <line x1="612" y1="83" x2="720" y2="83" stroke="#c0bdb4" stroke-width="0.75"/>
  <rect x="618" y="90" width="98" height="18" rx="4" fill="#eaf3de" stroke="#97c459" stroke-width="0.75"/>
  <text x="628" y="103" font-size="7.5" fill="#3b6d11">ax-buddy-plugin</text>
  <polyline points="700,97 703,101 709,95" fill="none" stroke="#639922" stroke-width="1.5" stroke-linecap="round" stroke-linejoin="round"/>
  <text x="666" y="143" font-size="10.5" fill="#2c2c2a" text-anchor="middle" font-weight="500">설치 확인</text>
  <text x="380" y="180" font-size="11" fill="#888780" text-anchor="middle">Mac / Windows 동일한 방법으로 설치합니다</text>
</svg>
